<svg xmlns="http://www.w3.org/2000/svg" width="85" height="85" viewBox="977.699 1139 85 85"><g data-name="003-wishlist"><path d="M1012.563 1190.797a1.66 1.66 0 1 0 0 3.322 1.66 1.66 0 0 0 0-3.322Zm0 0" fill="#32325f" fill-rule="evenodd" data-name="Path 89"/><path d="M1012.563 1200.758a1.66 1.66 0 1 0 0 3.322 1.66 1.66 0 0 0 0-3.322Zm0 0" fill="#32325f" fill-rule="evenodd" data-name="Path 90"/><path d="M1041.117 1190.797h-21.914a1.66 1.66 0 1 0 0 3.32h21.914a1.66 1.66 0 1 0 0-3.32Zm0 0" fill="#32325f" fill-rule="evenodd" data-name="Path 91"/><path d="M1041.117 1200.758h-21.914a1.66 1.66 0 1 0 0 3.32h21.914a1.66 1.66 0 1 0 0-3.32Zm0 0" fill="#32325f" fill-rule="evenodd" data-name="Path 92"/><path d="M982.68 1219.573v2.767a1.66 1.66 0 1 0 3.32 0v-2.767l.664-.886a21.716 21.716 0 0 0 4.316-12.949v-46.816h1.66c.916 0 1.66.744 1.66 1.66v15.273a1.66 1.66 0 1 0 3.321 0v-15.273a4.986 4.986 0 0 0-4.98-4.98h-1.66v-3.32a6.587 6.587 0 0 0-1.66-4.39v-3.912a4.986 4.986 0 0 0-4.981-4.98 4.986 4.986 0 0 0-4.98 4.98v3.914a6.638 6.638 0 0 0-1.66 4.387v53.457c0 4.64 1.532 9.239 4.316 12.95l.664.885Zm4.98-15.495h-6.64v-45.156h6.64v45.156Zm-6.64-48.476v-3.32a3.326 3.326 0 0 1 3.32-3.321 3.324 3.324 0 0 1 3.32 3.32v3.32h-6.64Zm3.32-13.282c.916 0 1.66.745 1.66 1.66v1.873a6.614 6.614 0 0 0-3.32 0v-1.873c0-.915.744-1.66 1.66-1.66Zm3.243 65.078a18.4 18.4 0 0 1-3.243 8.84 18.4 18.4 0 0 1-3.243-8.84h6.486Zm0 0" fill="#32325f" fill-rule="evenodd" data-name="Path 93"/><path d="M1062.7 1165.895v-8.301c0-3.662-2.98-6.64-6.641-6.64h-46.817c-4.577 0-8.3 3.723-8.3 8.3v51.465h-4.981a1.66 1.66 0 0 0-1.66 1.66c0 6.408 5.213 11.621 11.62 11.621h38.516c4.86 0 8.301-4.138 8.301-8.656v-47.79h8.301a1.66 1.66 0 0 0 1.66-1.66Zm-56.778 54.785c-4.008 0-7.363-2.857-8.134-6.64h38.349v1.66a8.26 8.26 0 0 0 1.664 4.98h-31.88Zm43.496-63.086v57.75c0 2.75-1.993 5.336-4.98 5.336a4.986 4.986 0 0 1-4.981-4.98v-3.321a1.66 1.66 0 0 0-1.66-1.66h-33.535v-51.465c0-2.746 2.234-4.997 4.98-4.997h41.064a6.697 6.697 0 0 0-.888 3.337Zm9.96 6.64h-6.64v-6.64a3.32 3.32 0 1 1 6.64 0v6.64Zm0 0" fill="#32325f" fill-rule="evenodd" data-name="Path 94"/><path d="M1022.75 1181.226c.947.799 1.926 1.625 2.965 2.525.312.27.699.405 1.087.405.387 0 .775-.135 1.087-.405 1.038-.9 2.017-1.726 2.964-2.525 5.284-4.46 9.102-7.682 9.102-12.413 0-4.43-3.253-7.899-7.407-7.899-2.793 0-4.615 1.497-5.746 3.02-1.132-1.523-2.954-3.02-5.748-3.02-4.153 0-7.406 3.47-7.406 7.899 0 4.731 3.818 7.953 9.102 12.413Zm-1.696-16.992c3.031 0 4.106 3.617 4.15 3.771.2.712.85 1.202 1.59 1.206h.009c.74 0 1.392-.494 1.596-1.206.045-.154 1.12-3.77 4.148-3.77 2.33 0 4.088 1.968 4.088 4.578 0 3.188-2.983 5.705-7.924 9.876-.62.522-1.253 1.057-1.91 1.618-.656-.561-1.29-1.096-1.91-1.619-4.94-4.17-7.923-6.687-7.923-9.875 0-2.61 1.757-4.579 4.086-4.579Zm0 0" fill="#32325f" fill-rule="evenodd" data-name="Path 95"/></g></svg>