<svg xmlns="http://www.w3.org/2000/svg" width="85" height="85" viewBox="1271.359 1139 85 85"><g data-name="004-box"><path d="M1313.86 1197.438a1.66 1.66 0 1 0 0 3.321 1.66 1.66 0 0 0 0-3.322Zm0 0" fill-rule="evenodd" data-name="Path 96"/><path d="M1356.36 1172.546a1.66 1.66 0 0 0-.94-1.506l-27.559-13.282a1.661 1.661 0 0 0-1.463.01l-5.898 2.95v-20.058a1.66 1.66 0 0 0-1.66-1.66h-9.961a1.66 1.66 0 0 0-1.66 1.66v20.058l-5.898-2.95c-.46-.229-1-.233-1.463-.01l-27.559 13.282a1.66 1.66 0 0 0 .02 3l11.042 5.136-11.041 5.135a1.66 1.66 0 0 0-.02 3l13.337 6.429v15.319c0 .628.355 1.203.917 1.484l26.563 13.281c.015.008.032.013.047.02a1.531 1.531 0 0 0 .202.078l.076.023c.046.012.093.02.14.028.023.004.045.01.069.013.062.008.125.012.188.013l.022.001c.07 0 .141-.006.212-.015l.052-.009c.052-.008.104-.019.155-.032.024-.006.047-.014.07-.021a1.69 1.69 0 0 0 .133-.047c.025-.01.05-.02.075-.032.015-.007.03-.012.044-.02l26.562-13.28a1.66 1.66 0 0 0 .918-1.485v-15.319l13.338-6.428a1.66 1.66 0 0 0-.021-3l-11.04-5.136 11.04-5.136a1.66 1.66 0 0 0 .96-1.494Zm-45.82-30.226h6.64v23.575c0 .916.743 1.66 1.66 1.66h1.66l-6.64 8.854-5.917-7.888-.725-.966h1.66a1.66 1.66 0 0 0 1.661-1.66v-23.575Zm3.32 48.281-22.851-11.425 15.109-7.555 6.413 8.55a1.66 1.66 0 0 0 2.657 0l6.413-8.55 15.108 7.555-22.85 11.425Zm-13.295-29.498 6.262 3.131h-2.929a1.66 1.66 0 0 0-1.328 2.657l1.523 2.03-16.822 8.412-10.372-4.824 23.666-11.406Zm-13.294 19.916 22.876 11.438-9.582 4.791-23.666-11.405 10.372-4.824Zm51.49 27.013-23.241 11.621v-13.915a1.66 1.66 0 1 0-3.32 0v13.915l-23.243-11.621v-12.692l10.9 5.253c.463.223 1.003.22 1.464-.01l12.538-6.27 12.54 6.27c.459.23 1 .233 1.462.01l10.9-5.253v12.692Zm-11.607-10.784-9.583-4.791 22.877-11.438 10.372 4.824-23.666 11.405Zm13.294-19.915-16.823-8.412 1.523-2.031a1.66 1.66 0 0 0-1.328-2.656h-2.928l6.262-3.131 23.665 11.406-10.371 4.824Zm0 0" fill="#32325f" fill-rule="evenodd" data-name="Path 97"/></g></svg>