<svg xmlns="http://www.w3.org/2000/svg" width="58" height="38.001" viewBox="89 0 58 38.001"><path d="M89 5.938A5.999 5.999 0 0 1 95.042 0h45.916C144.288 0 147 2.665 147 5.938v2.36a1.199 1.199 0 0 1 0 .015v7.125a1.199 1.199 0 0 1 0 .015v16.61A5.999 5.999 0 0 1 140.958 38H95.042C91.712 38 89 35.336 89 32.063V15.438m55.583 16.625c0 1.964-1.626 3.562-3.625 3.562H95.042c-1.999 0-3.625-1.598-3.625-3.562V16.625h53.166v15.438Zm0-17.813H91.417V9.5h53.166v4.75ZM91.417 7.125V5.938a3.599 3.599 0 0 1 3.625-3.563h45.916c1.999 0 3.625 1.599 3.625 3.563v1.187H91.417ZM111.958 28.5h-14.5a1.198 1.198 0 0 0-1.208 1.188c0 .655.541 1.187 1.208 1.187h14.5c.667 0 1.209-.532 1.209-1.187a1.199 1.199 0 0 0-1.209-1.188Zm0-4.75h-14.5c-.667 0-1.208.533-1.208 1.188 0 .656.541 1.187 1.208 1.187h14.5a1.198 1.198 0 0 0 1.209-1.187 1.199 1.199 0 0 0-1.209-1.188Zm24.167-2.375h-2.417a3.598 3.598 0 0 0-3.625 3.563v2.375c0 1.964 1.627 3.562 3.625 3.562h2.417a3.598 3.598 0 0 0 3.625-3.562v-2.375c0-1.964-1.626-3.563-3.625-3.563ZM89 8.313V5.938v26.125m47.125-3.563a1.199 1.199 0 0 0 1.208-1.187v-2.375c0-.655-.541-1.188-1.208-1.188h-2.417c-.667 0-1.208.533-1.208 1.188v2.375a1.199 1.199 0 0 0 1.208 1.187h2.417ZM89 32.063C89 35.336 91.712 38 95.042 38" fill="rgba(0, 0, 0, 1)" fill-rule="evenodd" data-name="Credit card"/></svg>