<svg xmlns="http://www.w3.org/2000/svg" width="82" height="60.003" viewBox="20 0 82 60.003"><path d="M98.983 56.982H23.017V10.573h2.102v41.524c0 .431.184.842.506 1.129a1.508 1.508 0 0 0 1.002.381c.053 0 .106-.002.16-.008a1.509 1.509 0 0 0 .016-.002l20.918-2.46a22.097 22.097 0 0 1 .178-.02c4.287-.47 8.574.332 12.407 2.321.435.226.953.226 1.388 0a21.711 21.711 0 0 1 12.584-2.3l20.918 2.46a1.518 1.518 0 0 0 .176.01 1.507 1.507 0 0 0 1.002-.382 1.51 1.51 0 0 0 .506-1.13V10.574h2.102v46.41Zm1.508-49.43h-3.61v-3.42a1.51 1.51 0 0 0-1.333-1.5L74.63.172a25.174 25.174 0 0 0-.145-.017A24.974 24.974 0 0 0 71.71 0 24.688 24.688 0 0 0 61 2.444 24.688 24.688 0 0 0 50.289 0c-.938 0-1.879.053-2.82.16a25.203 25.203 0 0 0-.1.012l-20.918 2.46a1.51 1.51 0 0 0-1.333 1.5v3.42h-3.61A1.51 1.51 0 0 0 20 9.062v49.43a1.51 1.51 0 0 0 1.508 1.511h78.983a1.51 1.51 0 0 0 1.509-1.51V9.063a1.51 1.51 0 0 0-1.509-1.51ZM47.883 3.154a22.072 22.072 0 0 0-.162.018L28.136 5.475V50.4l19.233-2.262a25.282 25.282 0 0 1 .222-.025 25.004 25.004 0 0 1 2.697-.147 24.664 24.664 0 0 1 9.203 1.782V5.073a21.703 21.703 0 0 0-11.608-1.92Zm26.395.018 19.586 2.303V50.4L74.63 48.137a24.952 24.952 0 0 0-2.915-.171 24.672 24.672 0 0 0-9.207 1.78V5.074a21.693 21.693 0 0 1 9.209-2.051c.804 0 1.612.044 2.42.134a22.088 22.088 0 0 1 .141.016Zm16.03 34.453-15.705-1.847a24.937 24.937 0 0 0-2.911-.17 24.708 24.708 0 0 0-6.5.871 1.51 1.51 0 0 0-1.113 1.457c0 .1.01.2.03.302a1.535 1.535 0 0 0 .023.095 1.51 1.51 0 0 0 1.454 1.115 1.5 1.5 0 0 0 .297-.03 1.525 1.525 0 0 0 .1-.024 21.718 21.718 0 0 1 5.711-.765c.83 0 1.664.047 2.497.143a22.183 22.183 0 0 1 .06.007l15.705 1.846c.06.007.12.01.178.01a1.51 1.51 0 0 0 1.497-1.334 1.51 1.51 0 0 0-1.323-1.676ZM71.693 31.7a21.705 21.705 0 0 0-5.71.766 1.51 1.51 0 0 1-.79-2.915 24.705 24.705 0 0 1 6.498-.872 24.946 24.946 0 0 1 2.911.171l15.706 1.847a1.51 1.51 0 0 1 1.333 1.498 1.529 1.529 0 0 1-.01.178 1.51 1.51 0 0 1-1.497 1.334c-.059 0-.118-.003-.178-.01L74.251 31.85a21.902 21.902 0 0 0-2.558-.15Zm-5.71-13.09a21.709 21.709 0 0 1 8.268-.616l15.705 1.847c.06.007.12.01.178.01a1.51 1.51 0 0 0 1.496-1.334 1.51 1.51 0 0 0-1.322-1.677l-15.706-1.846a24.934 24.934 0 0 0-2.91-.171 24.704 24.704 0 0 0-6.5.872 1.51 1.51 0 0 0-1.06 1.853 1.51 1.51 0 0 0 1.454 1.115 1.5 1.5 0 0 0 .297-.03 1.526 1.526 0 0 0 .1-.023Zm5.71 6.162a21.71 21.71 0 0 0-5.71.766 1.51 1.51 0 0 1-.79-2.915 24.712 24.712 0 0 1 6.499-.872 24.93 24.93 0 0 1 2.91.171l15.706 1.847a1.51 1.51 0 0 1 1.333 1.498 1.529 1.529 0 0 1-.01.178 1.51 1.51 0 0 1-1.497 1.334c-.059 0-.118-.003-.178-.01l-15.705-1.847a21.909 21.909 0 0 0-2.558-.15Zm-5.71-13.09a21.709 21.709 0 0 1 8.268-.616l15.705 1.846c.06.007.12.01.178.01a1.51 1.51 0 0 0 1.496-1.334 1.529 1.529 0 0 0 .01-.177 1.51 1.51 0 0 0-1.332-1.499L74.602 8.066a24.926 24.926 0 0 0-2.911-.172 24.701 24.701 0 0 0-6.5.872 1.51 1.51 0 0 0-1.06 1.854 1.51 1.51 0 0 0 1.455 1.115c.099 0 .198-.01.297-.03a1.527 1.527 0 0 0 .1-.024ZM31.809 26.778c.06 0 .119-.003.178-.01l15.705-1.846a21.906 21.906 0 0 1 2.537-.148 21.798 21.798 0 0 1 5.731.765 1.529 1.529 0 0 0 .098.023c.1.02.2.03.3.03a1.51 1.51 0 0 0 1.454-1.114 1.535 1.535 0 0 0 .023-.095c.02-.102.03-.203.03-.303a1.51 1.51 0 0 0-1.112-1.456 24.805 24.805 0 0 0-6.523-.871c-.324 0-.647.006-.97.019a24.93 24.93 0 0 0-1.92.149l-15.705 1.846a1.51 1.51 0 0 0-1.332 1.499 1.528 1.528 0 0 0 .01.178 1.51 1.51 0 0 0 1.496 1.334Zm0-13.856c.06 0 .119-.004.178-.01l15.705-1.847a21.909 21.909 0 0 1 1.735-.133c2.207-.08 4.414.172 6.533.75a1.53 1.53 0 0 0 .098.024 1.508 1.508 0 0 0 1.807-1.482 1.51 1.51 0 0 0-1.112-1.456 24.796 24.796 0 0 0-6.522-.871c-.963 0-1.928.055-2.89.168L31.635 9.912a1.51 1.51 0 0 0-1.332 1.498 1.528 1.528 0 0 0 .01.178 1.51 1.51 0 0 0 1.496 1.335Zm0 27.713c.06 0 .119-.004.178-.01l15.705-1.847a21.897 21.897 0 0 1 1.845-.136c.23-.008.462-.011.692-.011a21.798 21.798 0 0 1 5.731.764 1.529 1.529 0 0 0 .098.024c.1.02.2.03.3.03a1.51 1.51 0 0 0 1.454-1.114c.036-.133.053-.267.053-.398a1.51 1.51 0 0 0-1.112-1.457 24.804 24.804 0 0 0-6.523-.87c-.32 0-.64.006-.96.018a24.92 24.92 0 0 0-1.93.15l-15.705 1.846a1.51 1.51 0 0 0-1.332 1.498 1.528 1.528 0 0 0 .01.178 1.51 1.51 0 0 0 1.496 1.335Zm0-6.929c.06 0 .119-.003.178-.01l15.705-1.846a21.89 21.89 0 0 1 2.538-.148 21.795 21.795 0 0 1 5.73.765c.133.036.266.053.397.053a1.51 1.51 0 0 0 1.455-1.114 1.535 1.535 0 0 0 .023-.095c.02-.101.03-.203.03-.303a1.51 1.51 0 0 0-1.112-1.456 24.805 24.805 0 0 0-6.523-.87c-.304 0-.61.005-.914.016a24.911 24.911 0 0 0-1.975.151l-15.706 1.847a1.51 1.51 0 0 0-1.332 1.498 1.528 1.528 0 0 0 .01.178 1.51 1.51 0 0 0 1.496 1.334Zm0-13.856c.06 0 .119-.004.178-.01l15.705-1.847a21.91 21.91 0 0 1 2.537-.147 21.798 21.798 0 0 1 5.731.764c.133.037.266.054.397.054a1.51 1.51 0 0 0 1.455-1.114c.036-.133.053-.267.053-.398a1.51 1.51 0 0 0-1.112-1.456 24.804 24.804 0 0 0-6.522-.871c-.32 0-.641.006-.962.018a24.921 24.921 0 0 0-1.928.15L31.635 16.84a1.51 1.51 0 0 0-1.332 1.498 1.528 1.528 0 0 0 .01.178 1.51 1.51 0 0 0 1.496 1.335Z" fill="rgba(0, 0, 0, 1)" fill-rule="evenodd" data-name="Forma 1"/></svg>