<svg xmlns="http://www.w3.org/2000/svg" width="72" height="77" viewBox="22 0 72 77"><path d="M46.527 68.987H24.63V12.555h39.521v33.959a1.308 1.308 0 0 0 1.316 1.3 1.308 1.308 0 0 0 1.315-1.3V11.255c0-.718-.59-1.3-1.315-1.3H23.315a1.308 1.308 0 0 0-1.315 1.3v59.033c0 .718.589 1.3 1.315 1.3h23.212a1.308 1.308 0 0 0 1.315-1.3c0-.719-.589-1.3-1.315-1.3Zm41.696-14.611h-2.905v-2.86c0-.719-.589-1.301-1.315-1.301h-35.25a1.308 1.308 0 0 0-1.316 1.3v11.356c0 7.79 6.412 14.13 14.294 14.13h9.294a14.316 14.316 0 0 0 8.348-2.67 14.372 14.372 0 0 0 2.537-2.318l6.63-3.24A9.622 9.622 0 0 0 94 60.086a5.75 5.75 0 0 0-5.777-5.71ZM63.14 7.643a1.318 1.318 0 0 0 .578.22c.463.06.943-.127 1.235-.523a1.325 1.325 0 0 0 .018-.026 11.099 11.099 0 0 1 9.09-4.713 10.999 10.999 0 0 1 11.05 10.922c0 6.023-4.957 10.922-11.05 10.922a11.091 11.091 0 0 1-4.3-.858 1.323 1.323 0 0 0-.511-.103 1.316 1.316 0 0 0-1.212.794 1.29 1.29 0 0 0-.095.35c-.066.54.217 1.08.73 1.326a1.345 1.345 0 0 0 .064.028 13.732 13.732 0 0 0 5.325 1.064 13.617 13.617 0 0 0 13.68-13.523A13.617 13.617 0 0 0 74.06 0a13.739 13.739 0 0 0-11.254 5.834 1.288 1.288 0 0 0-.217.526c-.074.446.09.913.458 1.215a1.331 1.331 0 0 0 .091.068ZM71.025 74.4H61.73c-6.43 0-11.662-5.172-11.662-11.53v-.124h32.62v.125c0 6.357-5.232 11.529-11.663 11.529Zm11.663-21.585v3.516h-32.62v-3.516h32.62Zm0 7.33h-32.62v-1.213h32.62v1.213ZM42.78 17.332c0-.718-.59-1.3-1.316-1.3H29.463a1.308 1.308 0 0 0-1.316 1.3v9.887a1.308 1.308 0 0 0 1.316 1.3h12.001a1.308 1.308 0 0 0 1.316-1.3v-9.887Zm16.54 19.453H47.32a1.308 1.308 0 0 0-1.316 1.3v8.429a1.308 1.308 0 0 0 1.316 1.3H59.32a1.308 1.308 0 0 0 1.316-1.3v-8.428c0-.718-.59-1.3-1.316-1.3ZM40.15 25.918h-9.371v-7.285h9.37v7.285Zm1.315 20.764H29.463a1.308 1.308 0 0 0-1.316 1.3 1.308 1.308 0 0 0 1.316 1.3h12.001a1.308 1.308 0 0 0 1.316-1.3c0-.718-.59-1.3-1.316-1.3Zm0 15.36H29.463a1.308 1.308 0 0 0-1.316 1.3 1.308 1.308 0 0 0 1.316 1.3h12.001a1.308 1.308 0 0 0 1.316-1.3c0-.718-.59-1.3-1.316-1.3Zm0-25.6H29.463a1.308 1.308 0 0 0-1.316 1.3 1.308 1.308 0 0 0 1.316 1.3h12.001a1.308 1.308 0 0 0 1.316-1.3c0-.719-.59-1.3-1.316-1.3Zm0 5.12H29.463a1.308 1.308 0 0 0-1.316 1.3 1.308 1.308 0 0 0 1.316 1.3h12.001a1.308 1.308 0 0 0 1.316-1.3c0-.718-.59-1.3-1.316-1.3Zm0 15.36H29.463a1.308 1.308 0 0 0-1.316 1.3 1.308 1.308 0 0 0 1.316 1.3h12.001a1.308 1.308 0 0 0 1.316-1.3c0-.718-.59-1.3-1.316-1.3Zm0-25.6H29.463a1.308 1.308 0 0 0-1.316 1.3 1.308 1.308 0 0 0 1.316 1.3h12.001a1.308 1.308 0 0 0 1.316-1.3c0-.719-.59-1.3-1.316-1.3Zm0 20.48H29.463a1.308 1.308 0 0 0-1.316 1.3 1.308 1.308 0 0 0 1.316 1.3h12.001a1.308 1.308 0 0 0 1.316-1.3c0-.718-.59-1.3-1.316-1.3Zm17.856-25.53H47.32a1.308 1.308 0 0 0-1.316 1.3 1.308 1.308 0 0 0 1.316 1.3H59.32a1.308 1.308 0 0 0 1.316-1.3c0-.718-.59-1.3-1.316-1.3Zm0 5.12H47.32a1.308 1.308 0 0 0-1.316 1.3 1.308 1.308 0 0 0 1.316 1.301H59.32a1.308 1.308 0 0 0 1.316-1.3c0-.718-.59-1.3-1.316-1.3Zm0-10.24H47.32a1.308 1.308 0 0 0-1.316 1.3 1.308 1.308 0 0 0 1.316 1.3H59.32a1.308 1.308 0 0 0 1.316-1.3c0-.718-.59-1.3-1.316-1.3Zm0-5.12H47.32a1.308 1.308 0 0 0-1.316 1.3 1.308 1.308 0 0 0 1.316 1.3H59.32a1.308 1.308 0 0 0 1.316-1.3c0-.718-.59-1.3-1.316-1.3Zm-1.315 29.182h-9.371v-5.828h9.37v5.828Zm29.37 21.228-2.998 1.465c.606-1.566.941-3.263.941-5.036v-5.895h2.905c1.735 0 3.146 1.395 3.146 3.11a7.04 7.04 0 0 1-3.994 6.356ZM69.636 14.823h4.425a1.308 1.308 0 0 0 1.315-1.3V9.345a1.308 1.308 0 0 0-1.315-1.3 1.308 1.308 0 0 0-1.315 1.3v2.878h-3.11a1.308 1.308 0 0 0-1.315 1.3c0 .718.589 1.3 1.315 1.3Z" fill="rgba(0, 0, 0, 1)" fill-rule="evenodd" data-name="Forma 1"/></svg>